<?xml version="1.0" standalone="no"?><!DOCTYPE svg PUBLIC "-//W3C//DTD SVG 1.1//EN" "http://www.w3.org/Graphics/SVG/1.1/DTD/svg11.dtd"><svg t="1671461704447" class="icon" viewBox="0 0 1024 1024" version="1.1" xmlns="http://www.w3.org/2000/svg" p-id="3795" xmlns:xlink="http://www.w3.org/1999/xlink" width="200" height="200"><path d="M876.970667 349.738667l-356.266667-211.114667a17.066667 17.066667 0 0 0-17.408 0l-356.266667 211.114667a17.066667 17.066667 0 0 0-8.362666 14.677333V868.266667c0 9.386667 7.68 17.066667 17.066666 17.066666h712.533334a17.066667 17.066667 0 0 0 17.066666-17.066666V364.416a17.066667 17.066667 0 0 0-8.362666-14.677333zM516.266667 210.432l300.8 178.261333a8.533333 8.533333 0 0 1 4.224 7.338667v416.768a8.533333 8.533333 0 0 1-8.533334 8.533333H211.2a8.533333 8.533333 0 0 1-8.533333-8.533333V395.989333a8.533333 8.533333 0 0 1 4.181333-7.338666l300.8-178.218667a8.533333 8.533333 0 0 1 8.661333 0z" fill="#000000" fill-opacity=".87" p-id="3796"></path><path d="M544 550.4v179.2a17.066667 17.066667 0 0 1-17.066667 17.066667h-29.866666a17.066667 17.066667 0 0 1-17.066667-17.066667v-179.2c0-9.386667 7.68-17.066667 17.066667-17.066667h29.866666c9.386667 0 17.066667 7.68 17.066667 17.066667z" fill="#FA6400" p-id="3797"></path></svg>